<svg xmlns="http://www.w3.org/2000/svg" width="512" height="512" viewBox="0 0 512 512" role="img" aria-label="FocalPoint logo">
  <title>FocalPoint</title>
  <desc>Hand-authored focal mark: concentric rings, anchor dot, four cardinal nubs.</desc>
  <defs>
    <radialGradient id="fp-surface" cx="28%" cy="20%" r="100%">
      <stop offset="0%" stop-color="#95ccc8" stop-opacity="0.52" />
      <stop offset="100%" stop-color="#7ebab5" stop-opacity="0.12" />
    </radialGradient>
    <radialGradient id="fp-rim" cx="60%" cy="22%" r="70%">
      <stop offset="0%" stop-color="#f6f5f5" stop-opacity="0.35" />
      <stop offset="100%" stop-color="#f6f5f5" stop-opacity="0" />
    </radialGradient>
    <filter id="fp-soft-shadow" x="-30%" y="-30%" width="160%" height="160%">
      <feGaussianBlur in="SourceAlpha" stdDeviation="10" result="blur" />
      <feOffset in="blur" dx="0" dy="5" result="shadow" />
      <feColorMatrix in="shadow" type="matrix" values="0 0 0 0 0  0 0 0 0 0  0 0 0 0 0  0 0 0 0.24 0" />
      <feMerge>
        <feMergeNode in="shadow" />
        <feMergeNode in="SourceGraphic" />
      </feMerge>
    </filter>
  </defs>

  <g fill="none" stroke-linecap="round" stroke-linejoin="round">
    <path d="M 256 38 A 218 218 0 1 1 255.99 38" fill="none" stroke="#7ebab5" stroke-width="14" />
    <path d="M 256 64 A 192 192 0 1 1 255.99 64" fill="none" stroke="#6bb0ac" stroke-width="12" />
    <path d="M 256 90 A 166 166 0 1 1 255.99 90" fill="none" stroke="#95ccc8" stroke-width="10" />
    <path d="M 256 116 A 140 140 0 1 1 255.99 116" fill="none" stroke="#f6f5f5" stroke-width="7" />

    <!-- Cardinals -->
    <path d="M 256 38 L 256 22" stroke="#7ebab5" stroke-width="18" />
    <path d="M 256 474 L 256 490" stroke="#7ebab5" stroke-width="18" />
    <path d="M 38 256 L 22 256" stroke="#7ebab5" stroke-width="18" />
    <path d="M 474 256 L 490 256" stroke="#7ebab5" stroke-width="18" />
  </g>

  <g fill="#f6f5f5" filter="url(#fp-soft-shadow)">
    <circle cx="256" cy="256" r="12" fill="#f6f5f5" />
    <circle cx="256" cy="22" r="9" />
    <circle cx="256" cy="490" r="9" />
    <circle cx="22" cy="256" r="9" />
    <circle cx="490" cy="256" r="9" />
  </g>

  <g fill="url(#fp-surface)" opacity="0.6">
    <circle cx="256" cy="256" r="96" />
  </g>
  <circle cx="256" cy="256" r="96" fill="none" stroke="url(#fp-rim)" stroke-width="6" />

  <g fill="none" stroke="#7ebab5" stroke-width="12" stroke-linecap="round">
    <path d="M 188 188 L 226 226" />
    <path d="M 286 286 L 324 324" />
  </g>
  <g fill="none" stroke="#95ccc8" stroke-width="12" stroke-linecap="round">
    <path d="M 324 188 L 286 226" />
    <path d="M 226 286 L 188 324" />
  </g>
</svg>
